<?xml version="1.0" encoding="UTF-8"?>
<svg width="1024px" height="1024px" viewBox="0 0 1024 1024" version="1.1" xmlns="http://www.w3.org/2000/svg" xmlns:xlink="http://www.w3.org/1999/xlink">
    <title>堆积条形图</title>
    <defs>
        <rect id="path-1" x="0" y="0" width="900" height="643.359375" rx="5.2734375"></rect>
        <filter x="-4.3%" y="-6.1%" width="108.7%" height="112.1%" filterUnits="objectBoundingBox" id="filter-2">
            <feOffset dx="0" dy="0" in="SourceAlpha" result="shadowOffsetOuter1"></feOffset>
            <feGaussianBlur stdDeviation="13" in="shadowOffsetOuter1" result="shadowBlurOuter1"></feGaussianBlur>
            <feColorMatrix values="0 0 0 0 0   0 0 0 0 0   0 0 0 0 0  0 0 0 0.0841892483 0" type="matrix" in="shadowBlurOuter1"></feColorMatrix>
        </filter>
        <filter id="filter-3">
            <feColorMatrix in="SourceGraphic" type="matrix" values="0 0 0 0 0.047059 0 0 0 0 0.450980 0 0 0 0 1.000000 0 0 0 1.000000 0"></feColorMatrix>
        </filter>
    </defs>
    <g id="堆积条形图" stroke="none" stroke-width="1" fill="none" fill-rule="evenodd">
        <rect fill="#171A1D" x="0" y="0" width="1024" height="1024"></rect>
        <g id="编组-3" transform="translate(62.000000, 190.000000)">
            <g id="矩形" opacity="0.0500817602">
                <use fill="black" fill-opacity="1" filter="url(#filter-2)" xlink:href="#path-1"></use>
                <use fill="#3FA5FF" fill-rule="evenodd" xlink:href="#path-1"></use>
            </g>
            <g id="编组-2" transform="translate(437.957031, 521.148438) rotate(-270.000000) translate(-437.957031, -521.148438) translate(416.957031, 164.648438)">
                <path d="M0,481.173913 L41.3671875,481.173913 L41.3671875,706.80602 C41.3671875,710.119729 38.680896,712.80602 35.3671875,712.80602 L6,712.80602 C2.6862915,712.80602 4.05812251e-16,710.119729 0,706.80602 L0,481.173913 L0,481.173913 Z" id="矩形" fill="#0C73FF"></path>
                <path d="M6,0 L35.3671875,0 C38.680896,-6.08718376e-16 41.3671875,2.6862915 41.3671875,6 L41.3671875,231.632107 L41.3671875,231.632107 L0,231.632107 L0,6 C-4.05812251e-16,2.6862915 2.6862915,6.08718376e-16 6,0 Z" id="矩形备份-8" fill="#CAFBFE"></path>
                <rect id="矩形" fill="#3FA5FF" x="0" y="230.438127" width="41.3671875" height="250.735786"></rect>
            </g>
            <g id="编组-2备份" transform="translate(369.957031, 446.148437) rotate(-270.000000) translate(-369.957031, -446.148437) translate(348.957031, 157.648437)">
                <path d="M3.55271368e-15,208.84302 L41.3671875,208.84302 L41.3671875,570.84302 C41.3671875,574.156729 38.680896,576.84302 35.3671875,576.84302 L6,576.84302 C2.6862915,576.84302 3.95852593e-15,574.156729 3.55271368e-15,570.84302 L3.55271368e-15,208.84302 L3.55271368e-15,208.84302 Z" id="矩形" fill="#0C73FF"></path>
                <path d="M6,0 L35.3671875,0 C38.680896,2.79460044e-16 41.3671875,2.6862915 41.3671875,6 L41.3671875,96 L41.3671875,96 L3.55271368e-15,96 L3.55271368e-15,6 C3.14690143e-15,2.6862915 2.6862915,1.4968968e-15 6,0 Z" id="矩形备份-8" fill="#CAFBFE"></path>
                <rect id="矩形" fill="#3FA5FF" x="3.55271368e-15" y="96.4570312" width="41.3671875" height="112"></rect>
            </g>
            <g id="编组-2备份-2" transform="translate(333.957031, 371.148437) rotate(-270.000000) translate(-333.957031, -371.148437) translate(312.957031, 118.648437)">
                <path d="M0,205.84302 L41.3671875,205.84302 L41.3671875,498.84302 C41.3671875,502.156729 38.680896,504.84302 35.3671875,504.84302 L6,504.84302 C2.6862915,504.84302 4.05812251e-16,502.156729 0,498.84302 L0,205.84302 L0,205.84302 Z" id="矩形" fill="#0C73FF"></path>
                <path d="M6,0 L35.3671875,0 C38.680896,-3.55188275e-15 41.3671875,2.6862915 41.3671875,6 L41.3671875,92 L41.3671875,92 L3.55271368e-15,92 L3.55271368e-15,6 C3.14690143e-15,2.6862915 2.6862915,6.08718376e-16 6,0 Z" id="矩形备份-8" fill="#CAFBFE"></path>
                <rect id="矩形" fill="#3FA5FF" x="0" y="92.4570312" width="41.3671875" height="113"></rect>
            </g>
            <g id="编组-2备份-4" transform="translate(388.457031, 296.148437) rotate(-270.000000) translate(-388.457031, -296.148437) translate(367.457031, -10.851563)">
                <path d="M3.55271368e-15,281.84302 L41.3671875,281.84302 L41.3671875,607.84302 C41.3671875,611.156729 38.680896,613.84302 35.3671875,613.84302 L6,613.84302 C2.6862915,613.84302 3.48617519e-14,611.156729 3.55271368e-15,607.84302 L3.55271368e-15,281.84302 L3.55271368e-15,281.84302 Z" id="矩形" fill="#0C73FF"></path>
                <path d="M6,0 L35.3671875,0 C38.680896,-1.4968968e-15 41.3671875,2.6862915 41.3671875,6 L41.3671875,133 L41.3671875,133 L3.55271368e-15,133 L3.55271368e-15,6 C2.25872301e-15,2.6862915 2.6862915,-2.79460044e-16 6,0 Z" id="矩形备份-8" fill="#CAFBFE"></path>
                <rect id="矩形" fill="#3FA5FF" x="3.55271368e-15" y="133.457031" width="41.3671875" height="148"></rect>
            </g>
            <g id="编组-2备份-3" transform="translate(353.957031, 221.148437) rotate(-270.000000) translate(-353.957031, -221.148437) translate(332.957031, -51.351563)">
                <path d="M3.55271368e-15,231.84302 L41.3671875,231.84302 L41.3671875,538.84302 C41.3671875,542.156729 38.680896,544.84302 35.3671875,544.84302 L6,544.84302 C2.6862915,544.84302 3.07034751e-15,542.156729 3.55271368e-15,538.84302 L3.55271368e-15,231.84302 L3.55271368e-15,231.84302 Z" id="矩形" fill="#0C73FF"></path>
                <path d="M6,0 L35.3671875,0 C38.680896,-6.08718376e-16 41.3671875,2.6862915 41.3671875,6 L41.3671875,120 L41.3671875,120 L3.55271368e-15,120 L3.55271368e-15,6 C3.14690143e-15,2.6862915 2.6862915,6.08718376e-16 6,0 Z" id="矩形备份-8" fill="#CAFBFE"></path>
                <rect id="矩形" fill="#3FA5FF" x="3.55271368e-15" y="120" width="41.3671875" height="112"></rect>
            </g>
            <g filter="url(#filter-3)" font-family="PingFangSC-Medium, PingFang SC" font-size="17" font-weight="400" id="编组-4">
                <g transform="translate(75.957031, 561.148438)">
                    <text id="100" fill="#CAFBFE">
                        <tspan x="704.832" y="18">100</tspan>
                    </text>
                    <text id="50" fill="#CAFBFE">
                        <tspan x="363.842969" y="18">50</tspan>
                    </text>
                    <text id="0" fill="#CAFBFE">
                        <tspan x="0.4" y="18">0</tspan>
                    </text>
                </g>
            </g>
            <g id="编组" transform="translate(594.933594, 133.648438)" fill="#3FA5FF">
                <rect id="矩形" opacity="0.400000006" x="44" y="0" width="187.066406" height="28.6484375" rx="6"></rect>
                <rect id="矩形备份" x="0" y="0" width="28" height="28" rx="6"></rect>
            </g>
            <g id="编组备份" transform="translate(312.933594, 133.648438)" fill="#3FA5FF">
                <rect id="矩形" opacity="0.400000006" x="44" y="0" width="187.066406" height="28.6484375" rx="6"></rect>
                <rect id="矩形备份" x="0" y="0" width="28" height="28" rx="6"></rect>
            </g>
            <circle id="椭圆形" fill="#3FA5FF" opacity="0.5" cx="56.25" cy="45.2943645" r="13.1835938"></circle>
            <circle id="椭圆形备份" fill="#3FA5FF" opacity="0.5" cx="100.195312" cy="45.2943645" r="13.1835938"></circle>
            <circle id="椭圆形备份-2" fill="#3FA5FF" opacity="0.5" cx="144.140625" cy="45.2943645" r="13.1835938"></circle>
        </g>
    </g>
</svg>