<?xml version="1.0" encoding="UTF-8"?>
<svg width="1024px" height="1024px" viewBox="0 0 1024 1024" version="1.1" xmlns="http://www.w3.org/2000/svg" xmlns:xlink="http://www.w3.org/1999/xlink">
    <title>经纬度地图</title>
    <defs>
        <rect id="path-1" x="0" y="0" width="900" height="643.359375" rx="5.2734375"></rect>
        <filter x="-4.3%" y="-6.1%" width="108.7%" height="112.1%" filterUnits="objectBoundingBox" id="filter-2">
            <feOffset dx="0" dy="0" in="SourceAlpha" result="shadowOffsetOuter1"></feOffset>
            <feGaussianBlur stdDeviation="13" in="shadowOffsetOuter1" result="shadowBlurOuter1"></feGaussianBlur>
            <feColorMatrix values="0 0 0 0 0   0 0 0 0 0   0 0 0 0 0  0 0 0 0.0841892483 0" type="matrix" in="shadowBlurOuter1"></feColorMatrix>
        </filter>
    </defs>
    <g id="经纬度地图" stroke="none" stroke-width="1" fill="none" fill-rule="evenodd">
        <rect fill="#171A1D" x="0" y="0" width="1024" height="1024"></rect>
        <g id="编组-3" transform="translate(62.000000, 190.000000)">
            <g id="矩形" opacity="0.0500817602">
                <use fill="black" fill-opacity="1" filter="url(#filter-2)" xlink:href="#path-1"></use>
                <use fill="#0C73FF" fill-rule="evenodd" xlink:href="#path-1"></use>
            </g>
            <circle id="椭圆形" fill="#3FA5FF" opacity="0.5" cx="56.25" cy="45.2943645" r="13.1835938"></circle>
            <circle id="椭圆形备份" fill="#3FA5FF" opacity="0.5" cx="100.195312" cy="45.2943645" r="13.1835938"></circle>
            <circle id="椭圆形备份-2" fill="#3FA5FF" opacity="0.5" cx="144.140625" cy="45.2943645" r="13.1835938"></circle>
        </g>
        <g id="地图" transform="translate(310.000000, 286.000000)" fill-rule="nonzero">
            <path d="M2.90584328,333.740653 L1.24694351,432.11144 C1.24694351,432.11144 4.99716783,445.71263 26.7158514,446.079297 L335.239327,451.282312 L85.7699665,278.552143 L2.90584328,333.740653 Z" id="路径" fill="#0091FF"></path>
            <path d="M306.896397,293.220413 L228.453878,196.102993 L228.453877,196.102992 C225.15,192.462151 222.059723,188.633075 219.19853,184.63495 L117.190158,257.636517 L387.492115,444.081886 C387.492115,444.081886 393.6207,448.871431 394.84714,441.515146 L394.84714,212.077619 L329.308041,293.220783 L329.308041,293.220783 C324.667763,299.409568 315.889083,300.664874 309.700298,296.024601 C308.637453,295.227695 307.693391,294.283628 306.89648,293.220783 L306.896397,293.220413 Z" id="路径" fill="#3FA5FF"></path>
            <path d="M237.7109,29.3102745 L191.011527,29.9993751 L27.0386198,32.4207088 L27.0386186,32.4207088 C12.3740943,32.4207094 0.486147796,44.3086553 0.486147796,58.9731796 C0.486147796,58.9731796 0.486147796,58.9731796 0.486147796,58.9731796 L0.486147796,286.965632 L191.01157,154.192922 L200.948512,147.267762 L200.94851,147.267755 C198.159002,137.645564 196.731103,127.680064 196.706437,117.661723 L196.706436,117.671639 C196.706441,83.6221044 211.703385,51.300929 237.703475,29.3154467 L237.7109,29.3102745 Z" id="路径" fill="#0C73FF"></path>
            <path d="M318.101338,5.65246489e-06 L318.101332,5.65246489e-06 C288.664972,-0.138073989 260.149862,10.2579332 237.710453,29.3102991 L237.710454,29.3102986 C211.708777,51.293357 196.70914,83.6127256 196.705835,117.661643 L196.705835,117.662002 C196.730537,127.680343 198.158468,137.645843 200.948011,147.26799 L200.948008,147.267979 C204.856718,160.673363 211.029149,173.311611 219.198421,184.636159 L219.198409,184.636142 C222.059598,188.634259 225.149874,192.463339 228.453756,196.104184 L306.896276,293.220723 L306.896276,293.220725 C311.536554,299.40951 320.315234,300.664816 326.50402,296.024538 C327.566865,295.227628 328.510927,294.283566 329.307837,293.22072 L394.846936,212.077557 L407.748902,196.103079 C426.424156,175.560291 439.498086,149.41252 439.498086,117.661882 C439.498086,52.2946586 385.337566,5.65246489e-06 318.10131,5.65246489e-06 L318.101338,5.65246489e-06 Z M318.101338,177.427719 C284.48462,177.427719 256.470415,149.412326 256.470415,117.661864 L256.470415,117.67898 C256.470415,114.44989 256.734627,111.226212 257.260406,108.040219 C262.01584,79.1953735 287.773014,57.9152405 318.098498,57.9152405 L318.098495,57.9152405 C321.415783,57.9190249 324.727105,58.1964486 327.998771,58.7446882 C357.039598,63.5721778 379.730562,89.1080729 379.730562,117.678491 C379.730562,151.296487 351.716447,177.444346 318.098319,177.444346 L318.101338,177.427719 Z" id="形状" fill="#035DEF"></path>
        </g>
    </g>
</svg>