<?xml version="1.0" encoding="UTF-8"?>
<svg width="1024px" height="1024px" viewBox="0 0 1024 1024" version="1.1" xmlns="http://www.w3.org/2000/svg" xmlns:xlink="http://www.w3.org/1999/xlink">
    <title>二维表</title>
    <defs>
        <rect id="path-1" x="0" y="0" width="900" height="643.359375" rx="5.2734375"></rect>
        <filter x="-4.3%" y="-6.1%" width="108.7%" height="112.1%" filterUnits="objectBoundingBox" id="filter-2">
            <feOffset dx="0" dy="0" in="SourceAlpha" result="shadowOffsetOuter1"></feOffset>
            <feGaussianBlur stdDeviation="13" in="shadowOffsetOuter1" result="shadowBlurOuter1"></feGaussianBlur>
            <feColorMatrix values="0 0 0 0 0   0 0 0 0 0   0 0 0 0 0  0 0 0 0.0841892483 0" type="matrix" in="shadowBlurOuter1"></feColorMatrix>
        </filter>
    </defs>
    <g id="二维表" stroke="none" stroke-width="1" fill="none" fill-rule="evenodd">
        <rect fill="#171A1D" x="0" y="0" width="1024" height="1024"></rect>
        <g id="编组-3" transform="translate(62.000000, 190.000000)">
            <g id="矩形" opacity="0.0453533794">
                <use fill="black" fill-opacity="1" filter="url(#filter-2)" xlink:href="#path-1"></use>
                <use fill="#3FA5FF" fill-rule="evenodd" xlink:href="#path-1"></use>
            </g>
            <rect id="矩形" fill="#0C73FF" x="43.0664062" y="89.6484375" width="813.867188" height="119" rx="5.2734375"></rect>
            <rect id="矩形备份" fill="#0C73FF" x="43.0664062" y="239.818917" width="813.867188" height="353" rx="5.2734375"></rect>
            <g id="编组" transform="translate(84.000000, 289.318917)" fill="#3FA5FF">
                <rect id="矩形备份-6" x="0" y="0" width="153" height="56" rx="6"></rect>
                <rect id="矩形备份-7" x="193" y="0" width="153" height="56" rx="6"></rect>
                <rect id="矩形备份-8" x="386" y="0" width="153" height="56" rx="6"></rect>
                <rect id="矩形备份-9" x="579" y="0" width="153" height="56" rx="6"></rect>
            </g>
            <g id="编组备份" transform="translate(84.000000, 388.318917)" fill="#3FA5FF">
                <rect id="矩形备份-6" x="0" y="0" width="153" height="56" rx="6"></rect>
                <rect id="矩形备份-7" x="193" y="0" width="153" height="56" rx="6"></rect>
                <rect id="矩形备份-8" x="386" y="0" width="153" height="56" rx="6"></rect>
                <rect id="矩形备份-9" x="579" y="0" width="153" height="56" rx="6"></rect>
            </g>
            <g id="编组备份-2" transform="translate(84.000000, 487.318917)" fill="#3FA5FF">
                <rect id="矩形备份-6" x="0" y="0" width="153" height="56" rx="6"></rect>
                <rect id="矩形备份-7" x="193" y="0" width="153" height="56" rx="6"></rect>
                <rect id="矩形备份-8" x="386" y="0" width="153" height="56" rx="6"></rect>
                <rect id="矩形备份-9" x="579" y="0" width="153" height="56" rx="6"></rect>
            </g>
            <circle id="椭圆形" fill="#3FA5FF" opacity="0.5" cx="56.25" cy="45.2943645" r="13.1835938"></circle>
            <circle id="椭圆形备份" fill="#3FA5FF" opacity="0.5" cx="100.195312" cy="45.2943645" r="13.1835938"></circle>
            <circle id="椭圆形备份-2" fill="#3FA5FF" opacity="0.5" cx="144.140625" cy="45.2943645" r="13.1835938"></circle>
        </g>
    </g>
</svg>