<?xml version="1.0" encoding="UTF-8"?>
<svg width="1024px" height="1024px" viewBox="0 0 1024 1024" version="1.1" xmlns="http://www.w3.org/2000/svg" xmlns:xlink="http://www.w3.org/1999/xlink">
    <title>漏斗图</title>
    <defs>
        <rect id="path-1" x="0" y="0" width="900" height="643.359375" rx="5.2734375"></rect>
        <filter x="-4.3%" y="-6.1%" width="108.7%" height="112.1%" filterUnits="objectBoundingBox" id="filter-2">
            <feOffset dx="0" dy="0" in="SourceAlpha" result="shadowOffsetOuter1"></feOffset>
            <feGaussianBlur stdDeviation="13" in="shadowOffsetOuter1" result="shadowBlurOuter1"></feGaussianBlur>
            <feColorMatrix values="0 0 0 0 0   0 0 0 0 0   0 0 0 0 0  0 0 0 0.0841892483 0" type="matrix" in="shadowBlurOuter1"></feColorMatrix>
        </filter>
    </defs>
    <g id="漏斗图" stroke="none" stroke-width="1" fill="none" fill-rule="evenodd">
        <rect fill="#171A1D" x="0" y="0" width="1024" height="1024"></rect>
        <g id="编组-3" transform="translate(62.000000, 190.000000)">
            <g id="矩形" opacity="0.0500817602">
                <use fill="black" fill-opacity="1" filter="url(#filter-2)" xlink:href="#path-1"></use>
                <use fill="#0C73FF" fill-rule="evenodd" xlink:href="#path-1"></use>
            </g>
            <g id="编组" transform="translate(638.000000, 528.359375)" fill="#3FA5FF">
                <rect id="矩形" opacity="0.400000006" x="44" y="0" width="187.066406" height="28.6484375" rx="6"></rect>
                <rect id="矩形备份" x="0" y="0" width="28" height="28" rx="6"></rect>
            </g>
            <g id="编组备份" transform="translate(638.000000, 584.359375)" fill="#3FA5FF">
                <rect id="矩形" opacity="0.400000006" x="44" y="0" width="187.066406" height="28.6484375" rx="6"></rect>
                <rect id="矩形备份" x="0" y="0" width="28" height="28" rx="6"></rect>
            </g>
            <circle id="椭圆形" fill="#3FA5FF" opacity="0.5" cx="56.25" cy="45.2943645" r="13.1835938"></circle>
            <circle id="椭圆形备份" fill="#3FA5FF" opacity="0.5" cx="100.195312" cy="45.2943645" r="13.1835938"></circle>
            <circle id="椭圆形备份-2" fill="#3FA5FF" opacity="0.5" cx="144.140625" cy="45.2943645" r="13.1835938"></circle>
        </g>
        <g transform="translate(253.000000, 338.500000)" fill="#0C73FF" fill-rule="nonzero" id="路径">
            <polygon opacity="0.400000006" points="174.412061 302.147542 311.588692 302.147542 364.324047 210.588612 121.676706 210.588612"></polygon>
            <polygon opacity="0.200000003" points="243.000376 420.559444 305.441626 313.147555 180.882657 313.147555"></polygon>
            <polygon points="485.647718 0.294249412 0.353035294 0.294249412 56.3236887 97.3531859 429.677064 97.3531859"></polygon>
            <polygon opacity="0.800000012" points="62.7942844 108.029669 115.52964 199.912129 370.471113 199.912129 423.529998 108.029669"></polygon>
        </g>
    </g>
</svg>