<?xml version="1.0" encoding="utf-8"?>
<!-- Generator: Adobe Illustrator 17.0.0, SVG Export Plug-In . SVG Version: 6.00 Build 0)  -->
<!DOCTYPE svg PUBLIC "-//W3C//DTD SVG 1.1//EN" "http://www.w3.org/Graphics/SVG/1.1/DTD/svg11.dtd">
<svg version="1.1" id="图层_1" xmlns="http://www.w3.org/2000/svg" xmlns:xlink="http://www.w3.org/1999/xlink" x="0px" y="0px"
	 width="200px" height="200px" viewBox="0 0 200 200" enable-background="new 0 0 200 200" xml:space="preserve">
<path fill="#3D5AFE" d="M169.794,162.558h21.052c3.865,0,6.988-3.123,6.988-6.988V36.773c0-7.709-6.267-13.976-13.976-13.976H16.143
	c-7.709,0-13.976,6.267-13.976,13.976V155.57c0,3.865,3.123,6.988,6.988,6.988h146.663"/>
<path fill="#536DFE" d="M44.008,162.558h88.509c6.027-12.71,9.412-26.926,9.412-41.929c0-54.027-43.807-97.833-97.833-97.833H16.143
	c-5.962,0-11.05,3.734-13.059,8.975c-0.59,1.55-0.917,3.232-0.917,5.001V155.57c0,3.865,3.123,6.988,6.988,6.988h20.877"/>
<path fill="#FFEA00" d="M87.312,112.725l-0.131,0.131L87.312,112.725z M87.858,112.091c-0.087,0.087-0.175,0.197-0.24,0.284
	C87.683,112.288,87.771,112.2,87.858,112.091z M92.662,104.339c0.087-0.218,0.175-0.415,0.262-0.633
	C92.837,103.924,92.75,104.12,92.662,104.339z M94.999,93.092c0,0.48-0.022,0.961-0.044,1.441
	C94.977,94.075,94.999,93.595,94.999,93.092z M93.995,100.452c0.153-0.59,0.306-1.179,0.415-1.769
	C94.278,99.272,94.147,99.862,93.995,100.452z"/>
<path fill="#FFEA00" d="M99.782,88.834l-4.957,0.546c0.109,0.961,0.175,1.922,0.175,2.883v0.83
	c-0.044,3.909-0.852,7.665-2.358,11.246c-0.022,0.044-0.022,0.066-0.044,0.109c0.022-0.022,0.022-0.066,0.044-0.087
	c-0.022,0.066-0.066,0.131-0.087,0.197c0.022-0.044,0.022-0.066,0.044-0.109c-0.022,0.022-0.022,0.066-0.044,0.109
	c-0.044,0.087-0.087,0.175-0.109,0.262c-0.066,0.131-0.131,0.284-0.197,0.437c-0.022,0.066-0.066,0.131-0.087,0.197
	c-0.087,0.175-0.175,0.349-0.24,0.524c-0.022,0.022-0.022,0.066-0.044,0.087c-0.961,1.922-2.118,3.734-3.472,5.416l-0.022,0.022
	c-0.044,0.066-0.109,0.131-0.153,0.197c-0.022,0.022-0.044,0.044-0.044,0.066c-0.044,0.066-0.109,0.131-0.153,0.175
	c-0.066,0.066-0.109,0.131-0.153,0.197c-0.087,0.087-0.175,0.197-0.24,0.284c-0.087,0.109-0.197,0.218-0.306,0.328l-0.131,0.131
	c-0.131,0.153-0.284,0.306-0.415,0.437l-0.044,0.044c-0.328,0.349-0.655,0.677-1.005,1.005l-0.044,0.044
	c-0.153,0.131-0.306,0.284-0.437,0.415l-0.131,0.131c-0.109,0.109-0.218,0.197-0.328,0.306c-0.087,0.087-0.197,0.153-0.284,0.24
	c-0.066,0.066-0.131,0.109-0.197,0.153c-0.153,0.131-0.306,0.24-0.437,0.371l-0.022,0.022c-1.682,1.354-3.494,2.511-5.394,3.472
	c-0.022,0.022-0.066,0.022-0.087,0.044c-0.175,0.087-0.349,0.175-0.524,0.24c-0.066,0.022-0.131,0.066-0.197,0.087
	c-0.131,0.066-0.284,0.131-0.437,0.197c-0.087,0.044-0.175,0.087-0.262,0.109c-0.066,0.022-0.131,0.066-0.197,0.087
	c-3.56,1.507-7.338,2.293-11.246,2.337h-0.83c-3.909-0.066-7.665-0.852-11.246-2.337c-0.066-0.022-0.131-0.066-0.197-0.087
	c-0.087-0.044-0.175-0.087-0.262-0.109c-0.131-0.066-0.284-0.131-0.437-0.197c-0.066-0.022-0.131-0.066-0.197-0.087
	c-0.175-0.087-0.349-0.175-0.524-0.24c-0.022-0.022-0.066-0.022-0.087-0.044c-1.922-0.961-3.734-2.118-5.394-3.472l-0.022-0.022
	c-0.153-0.109-0.306-0.24-0.437-0.371c-0.066-0.066-0.131-0.109-0.197-0.153c-0.087-0.087-0.197-0.175-0.284-0.24
	c-0.109-0.087-0.218-0.197-0.328-0.306l-0.131-0.131c-0.044-0.044-0.109-0.087-0.153-0.131c0.044,0.044,0.087,0.087,0.131,0.109
	l0.131,0.131c0.109,0.109,0.218,0.197,0.328,0.306c0.087,0.087,0.197,0.153,0.284,0.24c0.066,0.066,0.131,0.109,0.197,0.153
	c0.153,0.131,0.306,0.24,0.437,0.371l0.022,0.022c1.66,1.332,3.472,2.511,5.394,3.472c0.022,0.022,0.066,0.022,0.087,0.044
	c0.175,0.087,0.349,0.175,0.524,0.24c0.066,0.022,0.131,0.066,0.197,0.087c0.131,0.066,0.284,0.131,0.437,0.197
	c0.087,0.044,0.175,0.087,0.262,0.109c3.516,1.529,7.381,2.38,11.443,2.424h0.83c4.062-0.066,7.927-0.917,11.443-2.424
	c0.087-0.044,0.175-0.087,0.262-0.109c0.131-0.066,0.284-0.131,0.437-0.197c0.066-0.022,0.131-0.066,0.197-0.087
	c0.175-0.087,0.349-0.175,0.524-0.24c0.022-0.022,0.066-0.022,0.087-0.044c1.944-0.961,3.734-2.14,5.394-3.472L83.862,116
	c0.153-0.109,0.306-0.24,0.437-0.371c0.066-0.066,0.131-0.109,0.197-0.153c0.087-0.087,0.197-0.175,0.284-0.24
	c0.109-0.087,0.218-0.197,0.328-0.306l0.131-0.131c0.153-0.131,0.306-0.284,0.437-0.415l0.044-0.044
	c0.175-0.175,0.349-0.328,0.502-0.502c0.153-0.175,0.328-0.328,0.502-0.502l0.044-0.044c0.131-0.153,0.284-0.306,0.415-0.437
	l0.131-0.131c0.109-0.109,0.197-0.218,0.306-0.328c0.087-0.087,0.175-0.197,0.24-0.284c0.066-0.066,0.109-0.131,0.153-0.197
	c0.131-0.153,0.24-0.306,0.371-0.437l0.022-0.022c1.332-1.66,2.511-3.472,3.472-5.416c0.022-0.022,0.022-0.066,0.044-0.087
	c0.087-0.175,0.175-0.349,0.24-0.524c0.022-0.066,0.066-0.131,0.087-0.197c0.066-0.131,0.131-0.284,0.197-0.437
	c0.044-0.087,0.087-0.175,0.109-0.262c1.529-3.516,2.38-7.381,2.424-11.443v-0.022v-0.393v-0.415
	c-0.022-0.983-0.066-1.944-0.175-2.883l-14.872,1.682c0.066,0.546,0.087,1.092,0.087,1.638c0,8.255-6.704,14.959-14.959,14.959
	s-14.959-6.704-14.959-14.959S56.805,77.74,65.06,77.74c0.568,0,1.114,0.022,1.66,0.087l1.66-14.893h0.022l0.546-4.957
	c-1.288-0.153-2.577-0.24-3.887-0.24c-19.305,0-34.94,15.636-34.94,34.94s15.636,34.94,34.94,34.94S100,111.982,100,92.677
	C100,91.367,99.935,90.079,99.782,88.834L99.782,88.834z M43.79,113.707l0.109,0.109l0.502,0.502l0.022,0.022L43.79,113.707z
	 M44.466,114.384l-0.022-0.022c0.044,0.044,0.087,0.087,0.131,0.109C44.532,114.428,44.51,114.406,44.466,114.384z"/>
<path fill="#FFEA00" d="M92.575,104.535c-0.044,0.087-0.087,0.175-0.109,0.262C92.488,104.71,92.531,104.623,92.575,104.535z
	 M76.634,65.053c0.087,0.044,0.175,0.066,0.262,0.109c-0.066-0.022-0.131-0.066-0.197-0.087
	C76.699,65.075,76.655,65.075,76.634,65.053z M76.634,65.053c-1.616-0.677-3.319-1.223-5.088-1.616
	C73.292,63.83,74.996,64.354,76.634,65.053z"/>
<path fill="#FFFF8D" d="M77.594,65.489c0.066,0.022,0.131,0.066,0.197,0.087c0.175,0.087,0.349,0.175,0.524,0.24
	c0.022,0.022,0.066,0.022,0.087,0.044c1.922,0.961,3.734,2.118,5.416,3.472l0.022,0.022c0.153,0.109,0.306,0.24,0.437,0.371
	c0.044,0.022,0.066,0.066,0.109,0.087c-0.022-0.022-0.066-0.044-0.087-0.066c-0.153-0.131-0.306-0.24-0.437-0.371l-0.022-0.022
	c-1.66-1.332-3.472-2.511-5.416-3.472c-0.022-0.022-0.066-0.022-0.087-0.044c-0.175-0.087-0.349-0.175-0.524-0.24
	C77.747,65.555,77.682,65.533,77.594,65.489c-0.131-0.044-0.284-0.109-0.415-0.175c-0.087-0.044-0.175-0.087-0.262-0.109
	c-1.703-0.742-3.494-1.332-5.372-1.725l-3.254,14.631c5.656,1.245,10.111,5.7,11.356,11.356l14.631-3.254V86.17l4.848-1.092
	C96.2,71.888,85.805,61.493,72.594,58.567l-1.07,4.87c1.769,0.393,3.494,0.939,5.154,1.638c0.066,0.022,0.131,0.066,0.197,0.087
	c0.087,0.044,0.175,0.087,0.262,0.109C77.311,65.358,77.463,65.424,77.594,65.489z M86.766,72.041l-0.022-0.022
	C86.744,72.041,86.744,72.041,86.766,72.041z M85.674,70.971l0.044,0.044c0.218,0.197,0.437,0.415,0.633,0.633
	c-0.044-0.044-0.066-0.087-0.109-0.109l-0.502-0.502L85.674,70.971c-0.022,0-0.044-0.044-0.065-0.066
	C85.609,70.905,85.674,70.971,85.674,70.971z M85.085,70.425l0.131,0.131c0.044,0.022,0.066,0.066,0.109,0.087
	c-0.022-0.022-0.066-0.044-0.087-0.087C85.194,70.512,85.15,70.49,85.085,70.425l-0.109-0.109L85.085,70.425z M84.473,69.879
	c0.087,0.087,0.197,0.175,0.284,0.24c0.044,0.044,0.109,0.087,0.153,0.131l-0.131-0.131C84.67,70.054,84.583,69.966,84.473,69.879
	c-0.022,0-0.044-0.044-0.066-0.066L84.473,69.879z"/>
<path fill="#FFEA00" d="M134.94,71.779h27.952c3.865,0,6.988,3.123,6.988,6.988s-3.123,6.988-6.988,6.988H134.94
	c-3.865,0-6.988-3.123-6.988-6.988S131.075,71.779,134.94,71.779z M134.94,99.6h27.952c3.865,0,6.988,3.123,6.988,6.988
	c0,3.865-3.123,6.988-6.988,6.988H134.94c-3.865,0-6.988-3.123-6.988-6.988C127.952,102.723,131.075,99.6,134.94,99.6z"/>
</svg>
