<?xml version="1.0" standalone="no"?><!DOCTYPE svg PUBLIC "-//W3C//DTD SVG 1.1//EN" "http://www.w3.org/Graphics/SVG/1.1/DTD/svg11.dtd"><svg t="1660545195411" class="icon" viewBox="0 0 1024 1024" version="1.1" xmlns="http://www.w3.org/2000/svg" p-id="937" xmlns:xlink="http://www.w3.org/1999/xlink" width="200" height="200"><defs><style type="text/css">@font-face { font-family: feedback-iconfont; src: url("//at.alicdn.com/t/font_1031158_u69w8yhxdu.woff2?t=1630033759944") format("woff2"), url("//at.alicdn.com/t/font_1031158_u69w8yhxdu.woff?t=1630033759944") format("woff"), url("//at.alicdn.com/t/font_1031158_u69w8yhxdu.ttf?t=1630033759944") format("truetype"); }
</style></defs><path d="M768 960H256c-35.3 0-64-28.7-64-64V128c0-35.3 28.7-64 64-64h512c35.3 0 64 28.7 64 64v768c0 35.3-28.7 64-64 64z" fill="#3D5AFE" p-id="938"></path><path d="M256 128h512v768H256z" fill="#FFEA00" p-id="939"></path><path d="M672.1 831.8h-320c-17.7 0-32-14.3-32-32s14.3-32 32-32h320c17.7 0 32 14.3 32 32s-14.4 32-32 32zM768 64H192c-35.3 0-64 28.7-64 64h192c0 35.3 28.7 64 64 64h256c35.3 0 64-28.7 64-64h128c0-35.3-28.7-64-64-64z" fill="#3D5AFE" p-id="940"></path><path d="M192 64zM192 896V128h-64v768c0 35.3 28.7 64 64 64 84.5 0 163.4-23.4 230.9-64H192z" fill="#536DFE" p-id="941"></path><path d="M288.1 831.8c-17.7 0-32-14.3-32-32s14.3-32 32-32h271.7C610.4 695.3 640 607.1 640 512c0-125.4-51.5-238.7-134.5-320H320c-35.3 0-64-28.7-64-64h-64v768h230.9c30.1-18.1 57.9-39.7 82.8-64.2H288.1z" fill="#FFFF8D" p-id="942"></path><path d="M256.1 799.8c0 17.7 14.3 32 32 32h217.6c20-19.6 38.1-41 54.1-64H288.1c-17.7 0-32 14.4-32 32zM422.9 128C355.4 87.4 276.5 64 192 64c-35.3 0-64 28.7-64 64h128c0 35.3 28.7 64 64 64h185.5c-24.9-24.4-52.6-45.9-82.6-64z" fill="#536DFE" p-id="943"></path></svg>