<?xml version="1.0" standalone="no"?><!DOCTYPE svg PUBLIC "-//W3C//DTD SVG 1.1//EN" "http://www.w3.org/Graphics/SVG/1.1/DTD/svg11.dtd"><svg t="1660545454832" class="icon" viewBox="0 0 1024 1024" version="1.1" xmlns="http://www.w3.org/2000/svg" p-id="1238" xmlns:xlink="http://www.w3.org/1999/xlink" width="200" height="200"><defs><style type="text/css">@font-face { font-family: feedback-iconfont; src: url("//at.alicdn.com/t/font_1031158_u69w8yhxdu.woff2?t=1630033759944") format("woff2"), url("//at.alicdn.com/t/font_1031158_u69w8yhxdu.woff?t=1630033759944") format("woff"), url("//at.alicdn.com/t/font_1031158_u69w8yhxdu.ttf?t=1630033759944") format("truetype"); }
</style></defs><path d="M896 896H128c-35.3 0-64-28.7-64-64V192c0-35.3 28.7-64 64-64h768c35.3 0 64 28.7 64 64v640c0 35.3-28.7 64-64 64z" fill="#3D5AFE" p-id="1239"></path><path d="M256 383.5m-64 0a64 64 0 1 0 128 0 64 64 0 1 0-128 0Z" fill="#FFEA00" p-id="1240"></path><path d="M896 896c35.3 0 64-28.7 64-64V605L768.1 320l-320 319.9-64-64L82.7 877.3C94.3 888.8 110.3 896 128 896h768z" fill="#536DFE" p-id="1241"></path><path d="M114.3 894.5c1.3 0.3 2.6 0.5 3.9 0.7-1.3-0.1-2.6-0.4-3.9-0.7z" fill="#8C9EFF" p-id="1242"></path><path d="M64 192v640c0 17.7 7.2 33.7 18.7 45.3L384 576l64 64 241.4-241.3c-29.9-114.4-103.8-211-202.6-270.6H128c-35.3-0.1-64 28.6-64 63.9z m192 127.5c35.3 0 64 28.7 64 64s-28.7 64-64 64-64-28.7-64-64 28.7-64 64-64z" fill="#536DFE" p-id="1243"></path><path d="M704 512c0-39.2-5-77.2-14.5-113.4L448.1 639.9l-64-64L82.7 877.3c0.7 0.7 1.5 1.4 2.2 2.1 1.5 1.4 3.1 2.7 4.7 3.9s3.3 2.4 5.1 3.4c1.8 1.1 3.6 2.1 5.4 3 0.9 0.4 1.9 0.9 2.8 1.3 0.6 0.3 1.2 0.5 1.8 0.7 1.2 0.5 2.4 0.9 3.7 1.3 1.9 0.6 3.8 1.1 5.7 1.5 1.3 0.3 2.6 0.5 3.9 0.7 3.2 0.5 6.4 0.7 9.7 0.7h358.9C617 817.6 704 675 704 512z" fill="#FFEA00" p-id="1244"></path><path d="M104.9 891.7c1.2 0.5 2.4 0.9 3.7 1.3-1.3-0.4-2.5-0.8-3.7-1.3z" fill="#8C9EFF" p-id="1245"></path></svg>